<mxfile host="app.diagrams.net" agent="Mozilla/5.0 (Windows NT 10.0; Win64; x64) AppleWebKit/537.36 (KHTML, like Gecko) Chrome/129.0.0.0 Safari/537.36 Edg/129.0.0.0" version="24.7.16" pages="4">
  <diagram name="Create" id="2YBvvXClWsGukQMizWep">
    <mxGraphModel grid="1" page="1" gridSize="10" guides="1" tooltips="1" connect="1" arrows="1" fold="1" pageScale="1" pageWidth="850" pageHeight="1100" math="0" shadow="0">
      <root>
        <mxCell id="0" />
        <mxCell id="1" parent="0" />
        <mxCell id="Cu7a0xj3oZdDIQciwics-25" value="" style="rounded=0;whiteSpace=wrap;html=1;" vertex="1" parent="1">
          <mxGeometry x="25" y="230" width="773" height="220" as="geometry" />
        </mxCell>
        <mxCell id="Cu7a0xj3oZdDIQciwics-1" value="Actor" style="shape=umlActor;verticalLabelPosition=bottom;verticalAlign=top;html=1;outlineConnect=0;" vertex="1" parent="1">
          <mxGeometry x="125" y="93" width="30" height="60" as="geometry" />
        </mxCell>
        <mxCell id="Cu7a0xj3oZdDIQciwics-2" value="Controler" style="rounded=0;whiteSpace=wrap;html=1;" vertex="1" parent="1">
          <mxGeometry x="270" y="90" width="120" height="60" as="geometry" />
        </mxCell>
        <mxCell id="Cu7a0xj3oZdDIQciwics-3" value="Service" style="rounded=0;whiteSpace=wrap;html=1;" vertex="1" parent="1">
          <mxGeometry x="460" y="90" width="120" height="60" as="geometry" />
        </mxCell>
        <mxCell id="Cu7a0xj3oZdDIQciwics-4" value="Database" style="rounded=0;whiteSpace=wrap;html=1;" vertex="1" parent="1">
          <mxGeometry x="650" y="90" width="120" height="60" as="geometry" />
        </mxCell>
        <mxCell id="Cu7a0xj3oZdDIQciwics-6" value="" style="endArrow=none;dashed=1;html=1;rounded=0;" edge="1" parent="1">
          <mxGeometry width="50" height="50" relative="1" as="geometry">
            <mxPoint x="139" y="500" as="sourcePoint" />
            <mxPoint x="139.42857142857156" y="171" as="targetPoint" />
          </mxGeometry>
        </mxCell>
        <mxCell id="Cu7a0xj3oZdDIQciwics-7" value="" style="endArrow=none;dashed=1;html=1;rounded=0;entryX=0.5;entryY=1;entryDx=0;entryDy=0;" edge="1" parent="1" target="Cu7a0xj3oZdDIQciwics-2">
          <mxGeometry width="50" height="50" relative="1" as="geometry">
            <mxPoint x="330.65999999999997" y="460" as="sourcePoint" />
            <mxPoint x="329" y="160" as="targetPoint" />
          </mxGeometry>
        </mxCell>
        <mxCell id="Cu7a0xj3oZdDIQciwics-9" value="" style="endArrow=none;dashed=1;html=1;rounded=0;entryX=0.5;entryY=1;entryDx=0;entryDy=0;" edge="1" parent="1">
          <mxGeometry width="50" height="50" relative="1" as="geometry">
            <mxPoint x="520.23" y="460" as="sourcePoint" />
            <mxPoint x="519.5699999999999" y="150" as="targetPoint" />
          </mxGeometry>
        </mxCell>
        <mxCell id="Cu7a0xj3oZdDIQciwics-10" value="" style="endArrow=none;dashed=1;html=1;rounded=0;entryX=0.5;entryY=1;entryDx=0;entryDy=0;" edge="1" parent="1">
          <mxGeometry width="50" height="50" relative="1" as="geometry">
            <mxPoint x="710.23" y="460" as="sourcePoint" />
            <mxPoint x="709.5699999999999" y="150" as="targetPoint" />
          </mxGeometry>
        </mxCell>
        <mxCell id="Cu7a0xj3oZdDIQciwics-13" value="" style="endArrow=classic;html=1;rounded=0;" edge="1" parent="1">
          <mxGeometry width="50" height="50" relative="1" as="geometry">
            <mxPoint x="330" y="190" as="sourcePoint" />
            <mxPoint x="520" y="190" as="targetPoint" />
          </mxGeometry>
        </mxCell>
        <mxCell id="Cu7a0xj3oZdDIQciwics-14" value="call create function" style="edgeLabel;html=1;align=center;verticalAlign=middle;resizable=0;points=[];" connectable="0" vertex="1" parent="Cu7a0xj3oZdDIQciwics-13">
          <mxGeometry x="-0.0289" y="1" relative="1" as="geometry">
            <mxPoint y="-9" as="offset" />
          </mxGeometry>
        </mxCell>
        <mxCell id="Cu7a0xj3oZdDIQciwics-15" value="" style="endArrow=classic;html=1;rounded=0;" edge="1" parent="1">
          <mxGeometry width="50" height="50" relative="1" as="geometry">
            <mxPoint x="140" y="180" as="sourcePoint" />
            <mxPoint x="330" y="180" as="targetPoint" />
          </mxGeometry>
        </mxCell>
        <mxCell id="Cu7a0xj3oZdDIQciwics-16" value="create request" style="edgeLabel;html=1;align=center;verticalAlign=middle;resizable=0;points=[];" connectable="0" vertex="1" parent="Cu7a0xj3oZdDIQciwics-15">
          <mxGeometry x="-0.0289" y="1" relative="1" as="geometry">
            <mxPoint y="-9" as="offset" />
          </mxGeometry>
        </mxCell>
        <mxCell id="Cu7a0xj3oZdDIQciwics-17" value="" style="endArrow=classic;html=1;rounded=0;" edge="1" parent="1">
          <mxGeometry width="50" height="50" relative="1" as="geometry">
            <mxPoint x="520" y="200" as="sourcePoint" />
            <mxPoint x="710" y="200" as="targetPoint" />
          </mxGeometry>
        </mxCell>
        <mxCell id="Cu7a0xj3oZdDIQciwics-18" value="add data" style="edgeLabel;html=1;align=center;verticalAlign=middle;resizable=0;points=[];" connectable="0" vertex="1" parent="Cu7a0xj3oZdDIQciwics-17">
          <mxGeometry x="-0.0289" y="1" relative="1" as="geometry">
            <mxPoint y="-9" as="offset" />
          </mxGeometry>
        </mxCell>
        <mxCell id="Cu7a0xj3oZdDIQciwics-19" value="not valid" style="html=1;verticalAlign=bottom;endArrow=open;dashed=1;endSize=8;curved=0;rounded=0;" edge="1" parent="1">
          <mxGeometry relative="1" as="geometry">
            <mxPoint x="710" y="260" as="sourcePoint" />
            <mxPoint x="520" y="260" as="targetPoint" />
          </mxGeometry>
        </mxCell>
        <mxCell id="Cu7a0xj3oZdDIQciwics-23" value="not valid" style="html=1;verticalAlign=bottom;endArrow=open;dashed=1;endSize=8;curved=0;rounded=0;" edge="1" parent="1">
          <mxGeometry relative="1" as="geometry">
            <mxPoint x="520" y="280" as="sourcePoint" />
            <mxPoint x="330" y="280" as="targetPoint" />
          </mxGeometry>
        </mxCell>
        <mxCell id="Cu7a0xj3oZdDIQciwics-24" value="not valid" style="html=1;verticalAlign=bottom;endArrow=open;dashed=1;endSize=8;curved=0;rounded=0;" edge="1" parent="1">
          <mxGeometry relative="1" as="geometry">
            <mxPoint x="330" y="300" as="sourcePoint" />
            <mxPoint x="140" y="300" as="targetPoint" />
          </mxGeometry>
        </mxCell>
        <mxCell id="Cu7a0xj3oZdDIQciwics-28" value="Alternative" style="rounded=0;whiteSpace=wrap;html=1;" vertex="1" parent="1">
          <mxGeometry x="30" y="230" width="60" height="40" as="geometry" />
        </mxCell>
        <mxCell id="Cu7a0xj3oZdDIQciwics-30" value="[Error data]" style="text;html=1;align=center;verticalAlign=middle;whiteSpace=wrap;rounded=0;" vertex="1" parent="1">
          <mxGeometry x="40" y="280" width="90" height="30" as="geometry" />
        </mxCell>
        <mxCell id="Cu7a0xj3oZdDIQciwics-31" value="" style="endArrow=none;dashed=1;html=1;rounded=0;entryX=0.998;entryY=0.407;entryDx=0;entryDy=0;entryPerimeter=0;exitX=-0.004;exitY=0.404;exitDx=0;exitDy=0;exitPerimeter=0;" edge="1" parent="1" source="Cu7a0xj3oZdDIQciwics-25" target="Cu7a0xj3oZdDIQciwics-25">
          <mxGeometry width="50" height="50" relative="1" as="geometry">
            <mxPoint x="310" y="330" as="sourcePoint" />
            <mxPoint x="360" y="280" as="targetPoint" />
          </mxGeometry>
        </mxCell>
        <mxCell id="Cu7a0xj3oZdDIQciwics-32" value="create data" style="html=1;verticalAlign=bottom;endArrow=open;dashed=1;endSize=8;curved=0;rounded=0;" edge="1" parent="1">
          <mxGeometry relative="1" as="geometry">
            <mxPoint x="710" y="350" as="sourcePoint" />
            <mxPoint x="520" y="350" as="targetPoint" />
          </mxGeometry>
        </mxCell>
        <mxCell id="Cu7a0xj3oZdDIQciwics-33" value="[create sucess]" style="text;html=1;align=center;verticalAlign=middle;whiteSpace=wrap;rounded=0;" vertex="1" parent="1">
          <mxGeometry x="40" y="330" width="90" height="30" as="geometry" />
        </mxCell>
        <mxCell id="5HJsNKOIeZQgKQgVk0pA-1" value="" style="html=1;points=[[0,0,0,0,5],[0,1,0,0,-5],[1,0,0,0,5],[1,1,0,0,-5]];perimeter=orthogonalPerimeter;outlineConnect=0;targetShapes=umlLifeline;portConstraint=eastwest;newEdgeStyle={&quot;curved&quot;:0,&quot;rounded&quot;:0};" vertex="1" parent="1">
          <mxGeometry x="325" y="170" width="10" height="220" as="geometry" />
        </mxCell>
        <mxCell id="5HJsNKOIeZQgKQgVk0pA-2" value="" style="html=1;points=[[0,0,0,0,5],[0,1,0,0,-5],[1,0,0,0,5],[1,1,0,0,-5]];perimeter=orthogonalPerimeter;outlineConnect=0;targetShapes=umlLifeline;portConstraint=eastwest;newEdgeStyle={&quot;curved&quot;:0,&quot;rounded&quot;:0};" vertex="1" parent="1">
          <mxGeometry x="515" y="170" width="10" height="200" as="geometry" />
        </mxCell>
        <mxCell id="5HJsNKOIeZQgKQgVk0pA-3" value="" style="html=1;points=[[0,0,0,0,5],[0,1,0,0,-5],[1,0,0,0,5],[1,1,0,0,-5]];perimeter=orthogonalPerimeter;outlineConnect=0;targetShapes=umlLifeline;portConstraint=eastwest;newEdgeStyle={&quot;curved&quot;:0,&quot;rounded&quot;:0};" vertex="1" parent="1">
          <mxGeometry x="705" y="170" width="10" height="190" as="geometry" />
        </mxCell>
        <mxCell id="VRWK1RlmrYmEyMN3BCOk-1" value="create data" style="html=1;verticalAlign=bottom;endArrow=open;dashed=1;endSize=8;curved=0;rounded=0;" edge="1" parent="1">
          <mxGeometry relative="1" as="geometry">
            <mxPoint x="525" y="358.95" as="sourcePoint" />
            <mxPoint x="335" y="358.95" as="targetPoint" />
          </mxGeometry>
        </mxCell>
        <mxCell id="VRWK1RlmrYmEyMN3BCOk-2" value="create data" style="html=1;verticalAlign=bottom;endArrow=open;dashed=1;endSize=8;curved=0;rounded=0;" edge="1" parent="1">
          <mxGeometry relative="1" as="geometry">
            <mxPoint x="325" y="370" as="sourcePoint" />
            <mxPoint x="135" y="370" as="targetPoint" />
          </mxGeometry>
        </mxCell>
      </root>
    </mxGraphModel>
  </diagram>
  <diagram id="Jid590NFUNj7RBQ_PmQv" name="Read">
    <mxGraphModel grid="1" page="1" gridSize="10" guides="1" tooltips="1" connect="1" arrows="1" fold="1" pageScale="1" pageWidth="850" pageHeight="1100" math="0" shadow="0">
      <root>
        <mxCell id="0" />
        <mxCell id="1" parent="0" />
        <mxCell id="SH1SL9j9itmQnvTdUi40-1" value="" style="rounded=0;whiteSpace=wrap;html=1;" vertex="1" parent="1">
          <mxGeometry x="25" y="230" width="773" height="220" as="geometry" />
        </mxCell>
        <mxCell id="SH1SL9j9itmQnvTdUi40-2" value="Actor" style="shape=umlActor;verticalLabelPosition=bottom;verticalAlign=top;html=1;outlineConnect=0;" vertex="1" parent="1">
          <mxGeometry x="125" y="93" width="30" height="60" as="geometry" />
        </mxCell>
        <mxCell id="SH1SL9j9itmQnvTdUi40-3" value="Controler" style="rounded=0;whiteSpace=wrap;html=1;" vertex="1" parent="1">
          <mxGeometry x="270" y="90" width="120" height="60" as="geometry" />
        </mxCell>
        <mxCell id="SH1SL9j9itmQnvTdUi40-4" value="Service" style="rounded=0;whiteSpace=wrap;html=1;" vertex="1" parent="1">
          <mxGeometry x="460" y="90" width="120" height="60" as="geometry" />
        </mxCell>
        <mxCell id="SH1SL9j9itmQnvTdUi40-5" value="Database" style="rounded=0;whiteSpace=wrap;html=1;" vertex="1" parent="1">
          <mxGeometry x="650" y="90" width="120" height="60" as="geometry" />
        </mxCell>
        <mxCell id="SH1SL9j9itmQnvTdUi40-6" value="" style="endArrow=none;dashed=1;html=1;rounded=0;" edge="1" parent="1">
          <mxGeometry width="50" height="50" relative="1" as="geometry">
            <mxPoint x="139" y="500" as="sourcePoint" />
            <mxPoint x="139.42857142857156" y="171" as="targetPoint" />
          </mxGeometry>
        </mxCell>
        <mxCell id="SH1SL9j9itmQnvTdUi40-7" value="" style="endArrow=none;dashed=1;html=1;rounded=0;entryX=0.5;entryY=1;entryDx=0;entryDy=0;" edge="1" parent="1" source="SH1SL9j9itmQnvTdUi40-24" target="SH1SL9j9itmQnvTdUi40-3">
          <mxGeometry width="50" height="50" relative="1" as="geometry">
            <mxPoint x="330.65999999999997" y="460" as="sourcePoint" />
            <mxPoint x="329" y="160" as="targetPoint" />
          </mxGeometry>
        </mxCell>
        <mxCell id="SH1SL9j9itmQnvTdUi40-8" value="" style="endArrow=none;dashed=1;html=1;rounded=0;entryX=0.5;entryY=1;entryDx=0;entryDy=0;" edge="1" parent="1" source="SH1SL9j9itmQnvTdUi40-28">
          <mxGeometry width="50" height="50" relative="1" as="geometry">
            <mxPoint x="520.23" y="460" as="sourcePoint" />
            <mxPoint x="519.5699999999999" y="150" as="targetPoint" />
          </mxGeometry>
        </mxCell>
        <mxCell id="SH1SL9j9itmQnvTdUi40-9" value="" style="endArrow=none;dashed=1;html=1;rounded=0;entryX=0.5;entryY=1;entryDx=0;entryDy=0;" edge="1" parent="1" source="SH1SL9j9itmQnvTdUi40-30">
          <mxGeometry width="50" height="50" relative="1" as="geometry">
            <mxPoint x="710.23" y="460" as="sourcePoint" />
            <mxPoint x="709.5699999999999" y="150" as="targetPoint" />
          </mxGeometry>
        </mxCell>
        <mxCell id="SH1SL9j9itmQnvTdUi40-10" value="" style="endArrow=classic;html=1;rounded=0;" edge="1" parent="1">
          <mxGeometry width="50" height="50" relative="1" as="geometry">
            <mxPoint x="330" y="190" as="sourcePoint" />
            <mxPoint x="520" y="190" as="targetPoint" />
          </mxGeometry>
        </mxCell>
        <mxCell id="SH1SL9j9itmQnvTdUi40-11" value="call read function" style="edgeLabel;html=1;align=center;verticalAlign=middle;resizable=0;points=[];" connectable="0" vertex="1" parent="SH1SL9j9itmQnvTdUi40-10">
          <mxGeometry x="-0.0289" y="1" relative="1" as="geometry">
            <mxPoint y="-9" as="offset" />
          </mxGeometry>
        </mxCell>
        <mxCell id="SH1SL9j9itmQnvTdUi40-12" value="" style="endArrow=classic;html=1;rounded=0;" edge="1" parent="1">
          <mxGeometry width="50" height="50" relative="1" as="geometry">
            <mxPoint x="140" y="180" as="sourcePoint" />
            <mxPoint x="330" y="180" as="targetPoint" />
          </mxGeometry>
        </mxCell>
        <mxCell id="SH1SL9j9itmQnvTdUi40-13" value="read request" style="edgeLabel;html=1;align=center;verticalAlign=middle;resizable=0;points=[];" connectable="0" vertex="1" parent="SH1SL9j9itmQnvTdUi40-12">
          <mxGeometry x="-0.0289" y="1" relative="1" as="geometry">
            <mxPoint y="-9" as="offset" />
          </mxGeometry>
        </mxCell>
        <mxCell id="SH1SL9j9itmQnvTdUi40-14" value="" style="endArrow=classic;html=1;rounded=0;" edge="1" parent="1">
          <mxGeometry width="50" height="50" relative="1" as="geometry">
            <mxPoint x="520" y="200" as="sourcePoint" />
            <mxPoint x="710" y="200" as="targetPoint" />
          </mxGeometry>
        </mxCell>
        <mxCell id="SH1SL9j9itmQnvTdUi40-15" value="find data" style="edgeLabel;html=1;align=center;verticalAlign=middle;resizable=0;points=[];" connectable="0" vertex="1" parent="SH1SL9j9itmQnvTdUi40-14">
          <mxGeometry x="-0.0289" y="1" relative="1" as="geometry">
            <mxPoint y="-9" as="offset" />
          </mxGeometry>
        </mxCell>
        <mxCell id="SH1SL9j9itmQnvTdUi40-16" value="not found" style="html=1;verticalAlign=bottom;endArrow=open;dashed=1;endSize=8;curved=0;rounded=0;" edge="1" parent="1">
          <mxGeometry relative="1" as="geometry">
            <mxPoint x="710" y="260" as="sourcePoint" />
            <mxPoint x="520" y="260" as="targetPoint" />
          </mxGeometry>
        </mxCell>
        <mxCell id="SH1SL9j9itmQnvTdUi40-17" value="not found" style="html=1;verticalAlign=bottom;endArrow=open;dashed=1;endSize=8;curved=0;rounded=0;" edge="1" parent="1">
          <mxGeometry relative="1" as="geometry">
            <mxPoint x="520" y="280" as="sourcePoint" />
            <mxPoint x="330" y="280" as="targetPoint" />
          </mxGeometry>
        </mxCell>
        <mxCell id="SH1SL9j9itmQnvTdUi40-18" value="not found" style="html=1;verticalAlign=bottom;endArrow=open;dashed=1;endSize=8;curved=0;rounded=0;" edge="1" parent="1">
          <mxGeometry relative="1" as="geometry">
            <mxPoint x="330" y="300" as="sourcePoint" />
            <mxPoint x="140" y="300" as="targetPoint" />
          </mxGeometry>
        </mxCell>
        <mxCell id="SH1SL9j9itmQnvTdUi40-19" value="Alternative" style="rounded=0;whiteSpace=wrap;html=1;" vertex="1" parent="1">
          <mxGeometry x="30" y="230" width="60" height="40" as="geometry" />
        </mxCell>
        <mxCell id="SH1SL9j9itmQnvTdUi40-20" value="[data not found]" style="text;html=1;align=center;verticalAlign=middle;whiteSpace=wrap;rounded=0;" vertex="1" parent="1">
          <mxGeometry x="40" y="280" width="90" height="30" as="geometry" />
        </mxCell>
        <mxCell id="SH1SL9j9itmQnvTdUi40-21" value="" style="endArrow=none;dashed=1;html=1;rounded=0;entryX=0.998;entryY=0.407;entryDx=0;entryDy=0;entryPerimeter=0;exitX=-0.004;exitY=0.404;exitDx=0;exitDy=0;exitPerimeter=0;" edge="1" parent="1" source="SH1SL9j9itmQnvTdUi40-1" target="SH1SL9j9itmQnvTdUi40-1">
          <mxGeometry width="50" height="50" relative="1" as="geometry">
            <mxPoint x="310" y="330" as="sourcePoint" />
            <mxPoint x="360" y="280" as="targetPoint" />
          </mxGeometry>
        </mxCell>
        <mxCell id="SH1SL9j9itmQnvTdUi40-22" value="found data" style="html=1;verticalAlign=bottom;endArrow=open;dashed=1;endSize=8;curved=0;rounded=0;" edge="1" parent="1">
          <mxGeometry relative="1" as="geometry">
            <mxPoint x="710" y="350" as="sourcePoint" />
            <mxPoint x="520" y="350" as="targetPoint" />
          </mxGeometry>
        </mxCell>
        <mxCell id="SH1SL9j9itmQnvTdUi40-23" value="[read successfully]" style="text;html=1;align=center;verticalAlign=middle;whiteSpace=wrap;rounded=0;" vertex="1" parent="1">
          <mxGeometry x="40" y="330" width="90" height="30" as="geometry" />
        </mxCell>
        <mxCell id="SH1SL9j9itmQnvTdUi40-25" value="" style="endArrow=none;dashed=1;html=1;rounded=0;entryX=0.5;entryY=1;entryDx=0;entryDy=0;" edge="1" parent="1" target="SH1SL9j9itmQnvTdUi40-24">
          <mxGeometry width="50" height="50" relative="1" as="geometry">
            <mxPoint x="330.65999999999997" y="460" as="sourcePoint" />
            <mxPoint x="330" y="150" as="targetPoint" />
          </mxGeometry>
        </mxCell>
        <mxCell id="SH1SL9j9itmQnvTdUi40-24" value="" style="html=1;points=[[0,0,0,0,5],[0,1,0,0,-5],[1,0,0,0,5],[1,1,0,0,-5]];perimeter=orthogonalPerimeter;outlineConnect=0;targetShapes=umlLifeline;portConstraint=eastwest;newEdgeStyle={&quot;curved&quot;:0,&quot;rounded&quot;:0};" vertex="1" parent="1">
          <mxGeometry x="325" y="170" width="10" height="220" as="geometry" />
        </mxCell>
        <mxCell id="SH1SL9j9itmQnvTdUi40-26" value="valid data" style="html=1;verticalAlign=bottom;endArrow=open;dashed=1;endSize=8;curved=0;rounded=0;" edge="1" parent="1">
          <mxGeometry relative="1" as="geometry">
            <mxPoint x="520" y="360" as="sourcePoint" />
            <mxPoint x="330" y="360" as="targetPoint" />
            <mxPoint as="offset" />
          </mxGeometry>
        </mxCell>
        <mxCell id="SH1SL9j9itmQnvTdUi40-27" value="read successfully" style="html=1;verticalAlign=bottom;endArrow=open;dashed=1;endSize=8;curved=0;rounded=0;" edge="1" parent="1">
          <mxGeometry relative="1" as="geometry">
            <mxPoint x="325" y="370" as="sourcePoint" />
            <mxPoint x="135" y="370" as="targetPoint" />
          </mxGeometry>
        </mxCell>
        <mxCell id="SH1SL9j9itmQnvTdUi40-29" value="" style="endArrow=none;dashed=1;html=1;rounded=0;entryX=0.5;entryY=1;entryDx=0;entryDy=0;" edge="1" parent="1" target="SH1SL9j9itmQnvTdUi40-28">
          <mxGeometry width="50" height="50" relative="1" as="geometry">
            <mxPoint x="520.23" y="460" as="sourcePoint" />
            <mxPoint x="519.5699999999999" y="150" as="targetPoint" />
          </mxGeometry>
        </mxCell>
        <mxCell id="SH1SL9j9itmQnvTdUi40-28" value="" style="html=1;points=[[0,0,0,0,5],[0,1,0,0,-5],[1,0,0,0,5],[1,1,0,0,-5]];perimeter=orthogonalPerimeter;outlineConnect=0;targetShapes=umlLifeline;portConstraint=eastwest;newEdgeStyle={&quot;curved&quot;:0,&quot;rounded&quot;:0};" vertex="1" parent="1">
          <mxGeometry x="515" y="170" width="10" height="200" as="geometry" />
        </mxCell>
        <mxCell id="SH1SL9j9itmQnvTdUi40-31" value="" style="endArrow=none;dashed=1;html=1;rounded=0;entryX=0.5;entryY=1;entryDx=0;entryDy=0;" edge="1" parent="1" target="SH1SL9j9itmQnvTdUi40-30">
          <mxGeometry width="50" height="50" relative="1" as="geometry">
            <mxPoint x="710.23" y="460" as="sourcePoint" />
            <mxPoint x="709.5699999999999" y="150" as="targetPoint" />
          </mxGeometry>
        </mxCell>
        <mxCell id="SH1SL9j9itmQnvTdUi40-30" value="" style="html=1;points=[[0,0,0,0,5],[0,1,0,0,-5],[1,0,0,0,5],[1,1,0,0,-5]];perimeter=orthogonalPerimeter;outlineConnect=0;targetShapes=umlLifeline;portConstraint=eastwest;newEdgeStyle={&quot;curved&quot;:0,&quot;rounded&quot;:0};" vertex="1" parent="1">
          <mxGeometry x="705" y="170" width="10" height="190" as="geometry" />
        </mxCell>
      </root>
    </mxGraphModel>
  </diagram>
  <diagram id="ocdI1uv3Q0AKsp8k-YOs" name="Update">
    <mxGraphModel grid="1" page="1" gridSize="10" guides="1" tooltips="1" connect="1" arrows="1" fold="1" pageScale="1" pageWidth="850" pageHeight="1100" math="0" shadow="0">
      <root>
        <mxCell id="0" />
        <mxCell id="1" parent="0" />
        <mxCell id="xtKtd9RZf7rd3j4RBo4t-1" value="" style="rounded=0;whiteSpace=wrap;html=1;" vertex="1" parent="1">
          <mxGeometry x="25" y="230" width="773" height="220" as="geometry" />
        </mxCell>
        <mxCell id="xtKtd9RZf7rd3j4RBo4t-2" value="Actor" style="shape=umlActor;verticalLabelPosition=bottom;verticalAlign=top;html=1;outlineConnect=0;" vertex="1" parent="1">
          <mxGeometry x="125" y="93" width="30" height="60" as="geometry" />
        </mxCell>
        <mxCell id="xtKtd9RZf7rd3j4RBo4t-3" value="Controler" style="rounded=0;whiteSpace=wrap;html=1;" vertex="1" parent="1">
          <mxGeometry x="270" y="90" width="120" height="60" as="geometry" />
        </mxCell>
        <mxCell id="xtKtd9RZf7rd3j4RBo4t-4" value="Service" style="rounded=0;whiteSpace=wrap;html=1;" vertex="1" parent="1">
          <mxGeometry x="460" y="90" width="120" height="60" as="geometry" />
        </mxCell>
        <mxCell id="xtKtd9RZf7rd3j4RBo4t-5" value="Database" style="rounded=0;whiteSpace=wrap;html=1;" vertex="1" parent="1">
          <mxGeometry x="650" y="90" width="120" height="60" as="geometry" />
        </mxCell>
        <mxCell id="xtKtd9RZf7rd3j4RBo4t-6" value="" style="endArrow=none;dashed=1;html=1;rounded=0;" edge="1" parent="1">
          <mxGeometry width="50" height="50" relative="1" as="geometry">
            <mxPoint x="139" y="500" as="sourcePoint" />
            <mxPoint x="139.42857142857156" y="171" as="targetPoint" />
          </mxGeometry>
        </mxCell>
        <mxCell id="xtKtd9RZf7rd3j4RBo4t-7" value="" style="endArrow=none;dashed=1;html=1;rounded=0;entryX=0.5;entryY=1;entryDx=0;entryDy=0;" edge="1" parent="1" source="xtKtd9RZf7rd3j4RBo4t-25" target="xtKtd9RZf7rd3j4RBo4t-3">
          <mxGeometry width="50" height="50" relative="1" as="geometry">
            <mxPoint x="330.65999999999997" y="460" as="sourcePoint" />
            <mxPoint x="329" y="160" as="targetPoint" />
          </mxGeometry>
        </mxCell>
        <mxCell id="xtKtd9RZf7rd3j4RBo4t-8" value="" style="endArrow=none;dashed=1;html=1;rounded=0;entryX=0.5;entryY=1;entryDx=0;entryDy=0;" edge="1" parent="1" source="xtKtd9RZf7rd3j4RBo4t-29">
          <mxGeometry width="50" height="50" relative="1" as="geometry">
            <mxPoint x="520.23" y="460" as="sourcePoint" />
            <mxPoint x="519.5699999999999" y="150" as="targetPoint" />
          </mxGeometry>
        </mxCell>
        <mxCell id="xtKtd9RZf7rd3j4RBo4t-9" value="" style="endArrow=none;dashed=1;html=1;rounded=0;entryX=0.5;entryY=1;entryDx=0;entryDy=0;" edge="1" parent="1" source="xtKtd9RZf7rd3j4RBo4t-31">
          <mxGeometry width="50" height="50" relative="1" as="geometry">
            <mxPoint x="710.23" y="460" as="sourcePoint" />
            <mxPoint x="709.5699999999999" y="150" as="targetPoint" />
          </mxGeometry>
        </mxCell>
        <mxCell id="xtKtd9RZf7rd3j4RBo4t-10" value="" style="endArrow=classic;html=1;rounded=0;" edge="1" parent="1">
          <mxGeometry width="50" height="50" relative="1" as="geometry">
            <mxPoint x="330" y="190" as="sourcePoint" />
            <mxPoint x="520" y="190" as="targetPoint" />
          </mxGeometry>
        </mxCell>
        <mxCell id="xtKtd9RZf7rd3j4RBo4t-11" value="call update function" style="edgeLabel;html=1;align=center;verticalAlign=middle;resizable=0;points=[];" connectable="0" vertex="1" parent="xtKtd9RZf7rd3j4RBo4t-10">
          <mxGeometry x="-0.0289" y="1" relative="1" as="geometry">
            <mxPoint y="-9" as="offset" />
          </mxGeometry>
        </mxCell>
        <mxCell id="xtKtd9RZf7rd3j4RBo4t-12" value="" style="endArrow=classic;html=1;rounded=0;" edge="1" parent="1">
          <mxGeometry width="50" height="50" relative="1" as="geometry">
            <mxPoint x="140" y="180" as="sourcePoint" />
            <mxPoint x="330" y="180" as="targetPoint" />
          </mxGeometry>
        </mxCell>
        <mxCell id="xtKtd9RZf7rd3j4RBo4t-13" value="update request" style="edgeLabel;html=1;align=center;verticalAlign=middle;resizable=0;points=[];" connectable="0" vertex="1" parent="xtKtd9RZf7rd3j4RBo4t-12">
          <mxGeometry x="-0.0289" y="1" relative="1" as="geometry">
            <mxPoint y="-9" as="offset" />
          </mxGeometry>
        </mxCell>
        <mxCell id="xtKtd9RZf7rd3j4RBo4t-14" value="" style="endArrow=classic;html=1;rounded=0;" edge="1" parent="1">
          <mxGeometry width="50" height="50" relative="1" as="geometry">
            <mxPoint x="521" y="200" as="sourcePoint" />
            <mxPoint x="711" y="200" as="targetPoint" />
          </mxGeometry>
        </mxCell>
        <mxCell id="xtKtd9RZf7rd3j4RBo4t-15" value="update data" style="edgeLabel;html=1;align=center;verticalAlign=middle;resizable=0;points=[];" connectable="0" vertex="1" parent="xtKtd9RZf7rd3j4RBo4t-14">
          <mxGeometry x="-0.0289" y="1" relative="1" as="geometry">
            <mxPoint y="-9" as="offset" />
          </mxGeometry>
        </mxCell>
        <mxCell id="xtKtd9RZf7rd3j4RBo4t-16" value="failed" style="html=1;verticalAlign=bottom;endArrow=open;dashed=1;endSize=8;curved=0;rounded=0;" edge="1" parent="1">
          <mxGeometry relative="1" as="geometry">
            <mxPoint x="710" y="260" as="sourcePoint" />
            <mxPoint x="520" y="260" as="targetPoint" />
          </mxGeometry>
        </mxCell>
        <mxCell id="xtKtd9RZf7rd3j4RBo4t-17" value="failed" style="html=1;verticalAlign=bottom;endArrow=open;dashed=1;endSize=8;curved=0;rounded=0;" edge="1" parent="1">
          <mxGeometry relative="1" as="geometry">
            <mxPoint x="520" y="280" as="sourcePoint" />
            <mxPoint x="330" y="280" as="targetPoint" />
          </mxGeometry>
        </mxCell>
        <mxCell id="xtKtd9RZf7rd3j4RBo4t-18" value="failed" style="html=1;verticalAlign=bottom;endArrow=open;dashed=1;endSize=8;curved=0;rounded=0;" edge="1" parent="1">
          <mxGeometry relative="1" as="geometry">
            <mxPoint x="330" y="300" as="sourcePoint" />
            <mxPoint x="140" y="300" as="targetPoint" />
          </mxGeometry>
        </mxCell>
        <mxCell id="xtKtd9RZf7rd3j4RBo4t-19" value="Alternative" style="rounded=0;whiteSpace=wrap;html=1;" vertex="1" parent="1">
          <mxGeometry x="30" y="230" width="60" height="40" as="geometry" />
        </mxCell>
        <mxCell id="xtKtd9RZf7rd3j4RBo4t-20" value="[update failed]" style="text;html=1;align=center;verticalAlign=middle;whiteSpace=wrap;rounded=0;" vertex="1" parent="1">
          <mxGeometry x="40" y="280" width="90" height="30" as="geometry" />
        </mxCell>
        <mxCell id="xtKtd9RZf7rd3j4RBo4t-21" value="" style="endArrow=none;dashed=1;html=1;rounded=0;entryX=0.998;entryY=0.407;entryDx=0;entryDy=0;entryPerimeter=0;exitX=-0.004;exitY=0.404;exitDx=0;exitDy=0;exitPerimeter=0;" edge="1" parent="1" source="xtKtd9RZf7rd3j4RBo4t-1" target="xtKtd9RZf7rd3j4RBo4t-1">
          <mxGeometry width="50" height="50" relative="1" as="geometry">
            <mxPoint x="310" y="330" as="sourcePoint" />
            <mxPoint x="360" y="280" as="targetPoint" />
          </mxGeometry>
        </mxCell>
        <mxCell id="xtKtd9RZf7rd3j4RBo4t-22" value="success" style="html=1;verticalAlign=bottom;endArrow=open;dashed=1;endSize=8;curved=0;rounded=0;" edge="1" parent="1">
          <mxGeometry relative="1" as="geometry">
            <mxPoint x="710" y="350" as="sourcePoint" />
            <mxPoint x="520" y="350" as="targetPoint" />
          </mxGeometry>
        </mxCell>
        <mxCell id="xtKtd9RZf7rd3j4RBo4t-23" value="[update successfully]" style="text;html=1;align=center;verticalAlign=middle;whiteSpace=wrap;rounded=0;" vertex="1" parent="1">
          <mxGeometry x="40" y="330" width="90" height="30" as="geometry" />
        </mxCell>
        <mxCell id="xtKtd9RZf7rd3j4RBo4t-24" value="" style="endArrow=none;dashed=1;html=1;rounded=0;entryX=0.5;entryY=1;entryDx=0;entryDy=0;" edge="1" parent="1" target="xtKtd9RZf7rd3j4RBo4t-25">
          <mxGeometry width="50" height="50" relative="1" as="geometry">
            <mxPoint x="330.65999999999997" y="460" as="sourcePoint" />
            <mxPoint x="330" y="150" as="targetPoint" />
          </mxGeometry>
        </mxCell>
        <mxCell id="xtKtd9RZf7rd3j4RBo4t-25" value="" style="html=1;points=[[0,0,0,0,5],[0,1,0,0,-5],[1,0,0,0,5],[1,1,0,0,-5]];perimeter=orthogonalPerimeter;outlineConnect=0;targetShapes=umlLifeline;portConstraint=eastwest;newEdgeStyle={&quot;curved&quot;:0,&quot;rounded&quot;:0};" vertex="1" parent="1">
          <mxGeometry x="325" y="170" width="10" height="220" as="geometry" />
        </mxCell>
        <mxCell id="xtKtd9RZf7rd3j4RBo4t-26" value="valid data" style="html=1;verticalAlign=bottom;endArrow=open;dashed=1;endSize=8;curved=0;rounded=0;" edge="1" parent="1">
          <mxGeometry relative="1" as="geometry">
            <mxPoint x="520" y="360" as="sourcePoint" />
            <mxPoint x="330" y="360" as="targetPoint" />
            <mxPoint as="offset" />
          </mxGeometry>
        </mxCell>
        <mxCell id="xtKtd9RZf7rd3j4RBo4t-27" value="valid data" style="html=1;verticalAlign=bottom;endArrow=open;dashed=1;endSize=8;curved=0;rounded=0;" edge="1" parent="1">
          <mxGeometry relative="1" as="geometry">
            <mxPoint x="325" y="370" as="sourcePoint" />
            <mxPoint x="135" y="370" as="targetPoint" />
            <mxPoint as="offset" />
          </mxGeometry>
        </mxCell>
        <mxCell id="xtKtd9RZf7rd3j4RBo4t-28" value="" style="endArrow=none;dashed=1;html=1;rounded=0;entryX=0.5;entryY=1;entryDx=0;entryDy=0;" edge="1" parent="1" target="xtKtd9RZf7rd3j4RBo4t-29">
          <mxGeometry width="50" height="50" relative="1" as="geometry">
            <mxPoint x="520.23" y="460" as="sourcePoint" />
            <mxPoint x="519.5699999999999" y="150" as="targetPoint" />
          </mxGeometry>
        </mxCell>
        <mxCell id="xtKtd9RZf7rd3j4RBo4t-29" value="" style="html=1;points=[[0,0,0,0,5],[0,1,0,0,-5],[1,0,0,0,5],[1,1,0,0,-5]];perimeter=orthogonalPerimeter;outlineConnect=0;targetShapes=umlLifeline;portConstraint=eastwest;newEdgeStyle={&quot;curved&quot;:0,&quot;rounded&quot;:0};" vertex="1" parent="1">
          <mxGeometry x="515" y="170" width="10" height="200" as="geometry" />
        </mxCell>
        <mxCell id="xtKtd9RZf7rd3j4RBo4t-30" value="" style="endArrow=none;dashed=1;html=1;rounded=0;entryX=0.5;entryY=1;entryDx=0;entryDy=0;" edge="1" parent="1" target="xtKtd9RZf7rd3j4RBo4t-31">
          <mxGeometry width="50" height="50" relative="1" as="geometry">
            <mxPoint x="710.23" y="460" as="sourcePoint" />
            <mxPoint x="709.5699999999999" y="150" as="targetPoint" />
          </mxGeometry>
        </mxCell>
        <mxCell id="xtKtd9RZf7rd3j4RBo4t-31" value="" style="html=1;points=[[0,0,0,0,5],[0,1,0,0,-5],[1,0,0,0,5],[1,1,0,0,-5]];perimeter=orthogonalPerimeter;outlineConnect=0;targetShapes=umlLifeline;portConstraint=eastwest;newEdgeStyle={&quot;curved&quot;:0,&quot;rounded&quot;:0};" vertex="1" parent="1">
          <mxGeometry x="705" y="170" width="10" height="190" as="geometry" />
        </mxCell>
      </root>
    </mxGraphModel>
  </diagram>
  <diagram id="V49qnWdcOJ3NIPkTIraf" name="Delete">
    <mxGraphModel grid="1" page="1" gridSize="10" guides="1" tooltips="1" connect="1" arrows="1" fold="1" pageScale="1" pageWidth="850" pageHeight="1100" math="0" shadow="0">
      <root>
        <mxCell id="0" />
        <mxCell id="1" parent="0" />
        <mxCell id="1sUyK423vYx0FASKFsmD-1" value="" style="rounded=0;whiteSpace=wrap;html=1;" vertex="1" parent="1">
          <mxGeometry x="25" y="230" width="773" height="220" as="geometry" />
        </mxCell>
        <mxCell id="rKnkBQRIChi7epNz-3wz-2" value="Actor" style="shape=umlActor;verticalLabelPosition=bottom;verticalAlign=top;html=1;outlineConnect=0;" vertex="1" parent="1">
          <mxGeometry x="125" y="93" width="30" height="60" as="geometry" />
        </mxCell>
        <mxCell id="rKnkBQRIChi7epNz-3wz-3" value="Controler" style="rounded=0;whiteSpace=wrap;html=1;" vertex="1" parent="1">
          <mxGeometry x="270" y="90" width="120" height="60" as="geometry" />
        </mxCell>
        <mxCell id="rKnkBQRIChi7epNz-3wz-4" value="Service" style="rounded=0;whiteSpace=wrap;html=1;" vertex="1" parent="1">
          <mxGeometry x="460" y="90" width="120" height="60" as="geometry" />
        </mxCell>
        <mxCell id="rKnkBQRIChi7epNz-3wz-5" value="Database" style="rounded=0;whiteSpace=wrap;html=1;" vertex="1" parent="1">
          <mxGeometry x="650" y="90" width="120" height="60" as="geometry" />
        </mxCell>
        <mxCell id="rKnkBQRIChi7epNz-3wz-6" value="" style="endArrow=none;dashed=1;html=1;rounded=0;" edge="1" parent="1">
          <mxGeometry width="50" height="50" relative="1" as="geometry">
            <mxPoint x="139" y="500" as="sourcePoint" />
            <mxPoint x="139.42857142857156" y="171" as="targetPoint" />
          </mxGeometry>
        </mxCell>
        <mxCell id="rKnkBQRIChi7epNz-3wz-7" value="" style="endArrow=none;dashed=1;html=1;rounded=0;entryX=0.5;entryY=1;entryDx=0;entryDy=0;" edge="1" parent="1" source="rKnkBQRIChi7epNz-3wz-25" target="rKnkBQRIChi7epNz-3wz-3">
          <mxGeometry width="50" height="50" relative="1" as="geometry">
            <mxPoint x="330.65999999999997" y="460" as="sourcePoint" />
            <mxPoint x="329" y="160" as="targetPoint" />
          </mxGeometry>
        </mxCell>
        <mxCell id="rKnkBQRIChi7epNz-3wz-8" value="" style="endArrow=none;dashed=1;html=1;rounded=0;entryX=0.5;entryY=1;entryDx=0;entryDy=0;" edge="1" parent="1" source="rKnkBQRIChi7epNz-3wz-29">
          <mxGeometry width="50" height="50" relative="1" as="geometry">
            <mxPoint x="520.23" y="460" as="sourcePoint" />
            <mxPoint x="519.5699999999999" y="150" as="targetPoint" />
          </mxGeometry>
        </mxCell>
        <mxCell id="rKnkBQRIChi7epNz-3wz-9" value="" style="endArrow=none;dashed=1;html=1;rounded=0;entryX=0.5;entryY=1;entryDx=0;entryDy=0;" edge="1" parent="1" source="rKnkBQRIChi7epNz-3wz-31">
          <mxGeometry width="50" height="50" relative="1" as="geometry">
            <mxPoint x="710.23" y="460" as="sourcePoint" />
            <mxPoint x="709.5699999999999" y="150" as="targetPoint" />
          </mxGeometry>
        </mxCell>
        <mxCell id="rKnkBQRIChi7epNz-3wz-10" value="" style="endArrow=classic;html=1;rounded=0;" edge="1" parent="1">
          <mxGeometry width="50" height="50" relative="1" as="geometry">
            <mxPoint x="330" y="190" as="sourcePoint" />
            <mxPoint x="520" y="190" as="targetPoint" />
          </mxGeometry>
        </mxCell>
        <mxCell id="rKnkBQRIChi7epNz-3wz-11" value="call delete function" style="edgeLabel;html=1;align=center;verticalAlign=middle;resizable=0;points=[];" connectable="0" vertex="1" parent="rKnkBQRIChi7epNz-3wz-10">
          <mxGeometry x="-0.0289" y="1" relative="1" as="geometry">
            <mxPoint y="-9" as="offset" />
          </mxGeometry>
        </mxCell>
        <mxCell id="rKnkBQRIChi7epNz-3wz-12" value="" style="endArrow=classic;html=1;rounded=0;" edge="1" parent="1">
          <mxGeometry width="50" height="50" relative="1" as="geometry">
            <mxPoint x="140" y="180" as="sourcePoint" />
            <mxPoint x="330" y="180" as="targetPoint" />
          </mxGeometry>
        </mxCell>
        <mxCell id="rKnkBQRIChi7epNz-3wz-13" value="delete request" style="edgeLabel;html=1;align=center;verticalAlign=middle;resizable=0;points=[];" connectable="0" vertex="1" parent="rKnkBQRIChi7epNz-3wz-12">
          <mxGeometry x="-0.0289" y="1" relative="1" as="geometry">
            <mxPoint y="-9" as="offset" />
          </mxGeometry>
        </mxCell>
        <mxCell id="rKnkBQRIChi7epNz-3wz-14" value="" style="endArrow=classic;html=1;rounded=0;" edge="1" parent="1">
          <mxGeometry width="50" height="50" relative="1" as="geometry">
            <mxPoint x="520" y="200" as="sourcePoint" />
            <mxPoint x="710" y="200" as="targetPoint" />
          </mxGeometry>
        </mxCell>
        <mxCell id="rKnkBQRIChi7epNz-3wz-15" value="find data and delete" style="edgeLabel;html=1;align=center;verticalAlign=middle;resizable=0;points=[];" connectable="0" vertex="1" parent="rKnkBQRIChi7epNz-3wz-14">
          <mxGeometry x="-0.0289" y="1" relative="1" as="geometry">
            <mxPoint y="-9" as="offset" />
          </mxGeometry>
        </mxCell>
        <mxCell id="rKnkBQRIChi7epNz-3wz-16" value="not found" style="html=1;verticalAlign=bottom;endArrow=open;dashed=1;endSize=8;curved=0;rounded=0;" edge="1" parent="1">
          <mxGeometry relative="1" as="geometry">
            <mxPoint x="710" y="260" as="sourcePoint" />
            <mxPoint x="520" y="260" as="targetPoint" />
          </mxGeometry>
        </mxCell>
        <mxCell id="rKnkBQRIChi7epNz-3wz-17" value="&amp;nbsp;not found" style="html=1;verticalAlign=bottom;endArrow=open;dashed=1;endSize=8;curved=0;rounded=0;" edge="1" parent="1">
          <mxGeometry relative="1" as="geometry">
            <mxPoint x="520" y="280" as="sourcePoint" />
            <mxPoint x="330" y="280" as="targetPoint" />
          </mxGeometry>
        </mxCell>
        <mxCell id="rKnkBQRIChi7epNz-3wz-18" value="delete failed" style="html=1;verticalAlign=bottom;endArrow=open;dashed=1;endSize=8;curved=0;rounded=0;" edge="1" parent="1">
          <mxGeometry relative="1" as="geometry">
            <mxPoint x="330" y="300" as="sourcePoint" />
            <mxPoint x="140" y="300" as="targetPoint" />
          </mxGeometry>
        </mxCell>
        <mxCell id="rKnkBQRIChi7epNz-3wz-24" value="" style="endArrow=none;dashed=1;html=1;rounded=0;entryX=0.5;entryY=1;entryDx=0;entryDy=0;" edge="1" parent="1" target="rKnkBQRIChi7epNz-3wz-25">
          <mxGeometry width="50" height="50" relative="1" as="geometry">
            <mxPoint x="330.65999999999997" y="460" as="sourcePoint" />
            <mxPoint x="330" y="150" as="targetPoint" />
          </mxGeometry>
        </mxCell>
        <mxCell id="rKnkBQRIChi7epNz-3wz-25" value="" style="html=1;points=[[0,0,0,0,5],[0,1,0,0,-5],[1,0,0,0,5],[1,1,0,0,-5]];perimeter=orthogonalPerimeter;outlineConnect=0;targetShapes=umlLifeline;portConstraint=eastwest;newEdgeStyle={&quot;curved&quot;:0,&quot;rounded&quot;:0};" vertex="1" parent="1">
          <mxGeometry x="325" y="170" width="10" height="220" as="geometry" />
        </mxCell>
        <mxCell id="rKnkBQRIChi7epNz-3wz-28" value="" style="endArrow=none;dashed=1;html=1;rounded=0;entryX=0.5;entryY=1;entryDx=0;entryDy=0;" edge="1" parent="1" target="rKnkBQRIChi7epNz-3wz-29">
          <mxGeometry width="50" height="50" relative="1" as="geometry">
            <mxPoint x="520.23" y="460" as="sourcePoint" />
            <mxPoint x="519.5699999999999" y="150" as="targetPoint" />
          </mxGeometry>
        </mxCell>
        <mxCell id="rKnkBQRIChi7epNz-3wz-29" value="" style="html=1;points=[[0,0,0,0,5],[0,1,0,0,-5],[1,0,0,0,5],[1,1,0,0,-5]];perimeter=orthogonalPerimeter;outlineConnect=0;targetShapes=umlLifeline;portConstraint=eastwest;newEdgeStyle={&quot;curved&quot;:0,&quot;rounded&quot;:0};" vertex="1" parent="1">
          <mxGeometry x="515" y="170" width="10" height="200" as="geometry" />
        </mxCell>
        <mxCell id="rKnkBQRIChi7epNz-3wz-30" value="" style="endArrow=none;dashed=1;html=1;rounded=0;entryX=0.5;entryY=1;entryDx=0;entryDy=0;" edge="1" parent="1" target="rKnkBQRIChi7epNz-3wz-31">
          <mxGeometry width="50" height="50" relative="1" as="geometry">
            <mxPoint x="710.23" y="460" as="sourcePoint" />
            <mxPoint x="709.5699999999999" y="150" as="targetPoint" />
          </mxGeometry>
        </mxCell>
        <mxCell id="rKnkBQRIChi7epNz-3wz-31" value="" style="html=1;points=[[0,0,0,0,5],[0,1,0,0,-5],[1,0,0,0,5],[1,1,0,0,-5]];perimeter=orthogonalPerimeter;outlineConnect=0;targetShapes=umlLifeline;portConstraint=eastwest;newEdgeStyle={&quot;curved&quot;:0,&quot;rounded&quot;:0};" vertex="1" parent="1">
          <mxGeometry x="705" y="170" width="10" height="190" as="geometry" />
        </mxCell>
        <mxCell id="1sUyK423vYx0FASKFsmD-5" value="Alternative" style="rounded=0;whiteSpace=wrap;html=1;" vertex="1" parent="1">
          <mxGeometry x="30" y="230" width="60" height="40" as="geometry" />
        </mxCell>
        <mxCell id="1sUyK423vYx0FASKFsmD-6" value="[delete failed]" style="text;html=1;align=center;verticalAlign=middle;whiteSpace=wrap;rounded=0;" vertex="1" parent="1">
          <mxGeometry x="40" y="280" width="90" height="30" as="geometry" />
        </mxCell>
        <mxCell id="1sUyK423vYx0FASKFsmD-7" value="" style="endArrow=none;dashed=1;html=1;rounded=0;entryX=0.998;entryY=0.407;entryDx=0;entryDy=0;entryPerimeter=0;exitX=-0.004;exitY=0.404;exitDx=0;exitDy=0;exitPerimeter=0;" edge="1" parent="1" source="1sUyK423vYx0FASKFsmD-1" target="1sUyK423vYx0FASKFsmD-1">
          <mxGeometry width="50" height="50" relative="1" as="geometry">
            <mxPoint x="310" y="330" as="sourcePoint" />
            <mxPoint x="360" y="280" as="targetPoint" />
          </mxGeometry>
        </mxCell>
        <mxCell id="1sUyK423vYx0FASKFsmD-8" value="found and delete" style="html=1;verticalAlign=bottom;endArrow=open;dashed=1;endSize=8;curved=0;rounded=0;" edge="1" parent="1">
          <mxGeometry relative="1" as="geometry">
            <mxPoint x="710" y="350" as="sourcePoint" />
            <mxPoint x="520" y="350" as="targetPoint" />
          </mxGeometry>
        </mxCell>
        <mxCell id="1sUyK423vYx0FASKFsmD-9" value="[delete successfully]" style="text;html=1;align=center;verticalAlign=middle;whiteSpace=wrap;rounded=0;" vertex="1" parent="1">
          <mxGeometry x="40" y="330" width="90" height="30" as="geometry" />
        </mxCell>
        <mxCell id="1sUyK423vYx0FASKFsmD-10" value="valid" style="html=1;verticalAlign=bottom;endArrow=open;dashed=1;endSize=8;curved=0;rounded=0;" edge="1" parent="1">
          <mxGeometry relative="1" as="geometry">
            <mxPoint x="520" y="360" as="sourcePoint" />
            <mxPoint x="330" y="360" as="targetPoint" />
            <mxPoint as="offset" />
          </mxGeometry>
        </mxCell>
        <mxCell id="1sUyK423vYx0FASKFsmD-11" value="delete successfully" style="html=1;verticalAlign=bottom;endArrow=open;dashed=1;endSize=8;curved=0;rounded=0;" edge="1" parent="1">
          <mxGeometry relative="1" as="geometry">
            <mxPoint x="325" y="370" as="sourcePoint" />
            <mxPoint x="135" y="370" as="targetPoint" />
            <mxPoint as="offset" />
          </mxGeometry>
        </mxCell>
      </root>
    </mxGraphModel>
  </diagram>
</mxfile>
